<svg width="32" height="32" viewBox="0 0 32 32" fill="none" xmlns="http://www.w3.org/2000/svg">
<path d="M12.5666 24.3596L12.5667 24.3597C13.5308 25.2875 14.7655 25.75 16 25.75C17.235 25.75 18.4685 25.2872 19.4216 24.3614L19.4234 24.3596C22.256 21.636 25.2407 17.4489 24.1324 12.5608L12.5666 24.3596ZM12.5666 24.3596C9.73432 21.6363 6.7493 17.4392 7.85757 12.5508L12.5666 24.3596ZM16 6.25C19.3659 6.25 23.1461 8.22167 24.1324 12.5606L7.85763 12.5506C8.84362 8.21277 12.6328 6.25 15.99 6.25H15.9901H15.9901H15.9902H15.9902H15.9903H15.9904H15.9904H15.9905H15.9905H15.9906H15.9906H15.9907H15.9907H15.9908H15.9909H15.9909H15.991H15.991H15.9911H15.9911H15.9912H15.9912H15.9913H15.9913H15.9914H15.9915H15.9915H15.9916H15.9916H15.9917H15.9917H15.9918H15.9918H15.9919H15.9919H15.992H15.992H15.9921H15.9921H15.9922H15.9922H15.9923H15.9923H15.9924H15.9924H15.9925H15.9925H15.9926H15.9926H15.9927H15.9927H15.9928H15.9928H15.9928H15.9929H15.9929H15.993H15.993H15.9931H15.9931H15.9932H15.9932H15.9933H15.9933H15.9933H15.9934H15.9934H15.9935H15.9935H15.9936H15.9936H15.9937H15.9937H15.9937H15.9938H15.9938H15.9939H15.9939H15.994H15.994H15.994H15.9941H15.9941H15.9942H15.9942H15.9942H15.9943H15.9943H15.9944H15.9944H15.9944H15.9945H15.9945H15.9946H15.9946H15.9946H15.9947H15.9947H15.9948H15.9948H15.9948H15.9949H15.9949H15.9949H15.995H15.995H15.9951H15.9951H15.9951H15.9952H15.9952H15.9952H15.9953H15.9953H15.9953H15.9954H15.9954H15.9954H15.9955H15.9955H15.9956H15.9956H15.9956H15.9957H15.9957H15.9957H15.9958H15.9958H15.9958H15.9959H15.9959H15.9959H15.9959H15.996H15.996H15.996H15.9961H15.9961H15.9961H15.9962H15.9962H15.9962H15.9963H15.9963H15.9963H15.9964H15.9964H15.9964H15.9964H15.9965H15.9965H15.9965H15.9966H15.9966H15.9966H15.9966H15.9967H15.9967H15.9967H15.9968H15.9968H15.9968H15.9968H15.9969H15.9969H15.9969H15.9969H15.997H15.997H15.997H15.997H15.9971H15.9971H15.9971H15.9972H15.9972H15.9972H15.9972H15.9973H15.9973H15.9973H15.9973H15.9974H15.9974H15.9974H15.9974H15.9974H15.9975H15.9975H15.9975H15.9975H15.9976H15.9976H15.9976H15.9976H15.9977H15.9977H15.9977H15.9977H15.9977H15.9978H15.9978H15.9978H15.9978H15.9978H15.9979H15.9979H15.9979H15.9979H15.998H15.998H15.998H15.998H15.998H15.9981H15.9981H15.9981H15.9981H15.9981H15.9981H15.9982H15.9982H15.9982H15.9982H15.9982H15.9983H15.9983H15.9983H15.9983H15.9983H15.9984H15.9984H15.9984H15.9984H15.9984H15.9984H15.9985H15.9985H15.9985H15.9985H15.9985H15.9985H15.9986H15.9986H15.9986H15.9986H15.9986H15.9986H15.9986H15.9987H15.9987H15.9987H15.9987H15.9987H15.9987H15.9988H15.9988H15.9988H15.9988H15.9988H15.9988H15.9988H15.9989H15.9989H15.9989H15.9989H15.9989H15.9989H15.9989H15.9989H15.999H15.999H15.999H15.999H15.999H15.999H15.999H15.999H15.9991H15.9991H15.9991H15.9991H15.9991H15.9991H15.9991H15.9991H15.9992H15.9992H15.9992H15.9992H15.9992H15.9992H15.9992H15.9992H15.9992H15.9993H15.9993H15.9993H15.9993H15.9993H15.9993H15.9993H15.9993H15.9993H15.9993H15.9994H15.9994H15.9994H15.9994H15.9994H15.9994H15.9994H15.9994H15.9994H15.9994H15.9994H15.9995H15.9995H15.9995H15.9995H15.9995H15.9995H15.9995H15.9995H15.9995H15.9995H15.9995H15.9995H15.9995H15.9996H15.9996H15.9996H15.9996H15.9996H15.9996H15.9996H15.9996H15.9997H15.9997H15.9997H15.9997H15.9997H15.9997H15.9997H15.9997H15.9997H15.9998H15.9998H15.9998H15.9998H15.9998H15.9998H15.9998H15.9998H15.9998H15.9998H15.9998H15.9999H15.9999H15.9999H15.9999H15.9999H15.9999H15.9999H15.9999H15.9999H15.9999H15.9999H15.9999H16H16H16H16H16H16H16ZM12.35 14.31C12.35 16.3261 13.9839 17.96 16 17.96C18.0161 17.96 19.65 16.3261 19.65 14.31C19.65 12.2939 18.0161 10.66 16 10.66C13.9839 10.66 12.35 12.2939 12.35 14.31Z" fill="#33A077" stroke="#33A077"/>
</svg>
